
<global>
ampeg_attack=0.002
ampeg_release=5
</global>

<group>
group_label=Group

<region>
hikey=C#3
hivel=127
lokey=C3
lovel=1
offset=4421
pitch_keycenter=C3
release_start=80797
release_xfade=9600
sample=om28_Doit_MF_C3.opus
</region>

<region>
end=139293
hikey=C#4
hivel=127
lokey=C4
lovel=1
offset=2554
release_start=31202
release_xfade=9600
sample=om28_Doit_MF_C4.opus
</region>

<region>
hikey=D#4
hivel=127
lokey=D4
lovel=1
offset=2394
pitch_keycenter=D4
release_start=23026
release_xfade=9600
sample=om28_Doit_MF_D4.opus
</region>

<region>
hikey=G2
hivel=127
lokey=F#2
lovel=1
offset=4088
pitch_keycenter=F#2
release_start=75832
release_xfade=9600
sample=om28_Doit_MF_F#2.opus
</region>

<region>
hikey=F3
hivel=127
lokey=E3
lovel=1
offset=1091
pitch_keycenter=E3
release_start=41539
release_xfade=9600
sample=om28_Doit_MF_E3.opus
</region>

<region>
hikey=F4
hivel=127
lokey=E4
lovel=1
offset=1256
pitch_keycenter=E4
release_start=33659
release_xfade=9600
sample=om28_Doit_MF_E4.opus
</region>

<region>
hikey=F5
hivel=127
lokey=E5
lovel=1
offset=1803
pitch_keycenter=E5
release_start=18303
release_xfade=9600
sample=om28_Doit_MF_E5.opus
</region>

<region>
hikey=C#5
hivel=127
lokey=C5
lovel=1
offset=8771
pitch_keycenter=C5
release_start=27596
release_xfade=9600
sample=om28_Doit_MF_C5.opus
</region>

<region>
hikey=G4
hivel=127
lokey=F#4
lovel=1
offset=7839
pitch_keycenter=F#4
release_start=37962
release_xfade=9600
sample=om28_Doit_MF_F#4.opus
</region>

<region>
hikey=A2
hivel=127
lokey=G#2
lovel=1
offset=2414
pitch_keycenter=G#2
release_start=75761
release_xfade=9600
sample=om28_Doit_MF_G#2.opus
</region>

<region>
hikey=A4
hivel=127
lokey=G#4
lovel=1
offset=4808
pitch_keycenter=G#4
release_start=26943
release_xfade=9600
sample=om28_Doit_MF_G#4.opus
</region>

<region>
end=112625
hivel=127
key=G#5
lovel=1
offset=794
release_start=19808
release_xfade=9600
sample=om28_Doit_MF_G#5.opus
</region>

<region>
hikey=D#2
hivel=127
lokey=C2
lovel=1
offset=1125
pitch_keycenter=D2
release_start=51246
release_xfade=9600
sample=om28_Doit_MF_D2.opus
</region>

<region>
hikey=G3
hivel=127
lokey=F#3
lovel=1
offset=7342
pitch_keycenter=F#3
release_start=50141
release_xfade=9600
sample=om28_Doit_MF_F#3.opus
</region>

<region>
hikey=B4
hivel=127
lokey=A#4
lovel=1
offset=8524
pitch_keycenter=A#4
release_start=29881
release_xfade=9600
sample=om28_Doit_MF_A#4.opus
</region>

<region>
hikey=D#3
hivel=127
lokey=D3
lovel=0
offset=5641
pitch_keycenter=D3
release_start=56277
release_xfade=9600
sample=om28_Doit_MF_D3.opus
</region>

<region>
hikey=F2
hivel=127
lokey=E2
lovel=1
offset=1045
pitch_keycenter=E2
release_start=71944
release_xfade=9600
sample=om28_Doit_MF_E2.opus
</region>

<region>
hikey=D#5
hivel=127
lokey=D5
lovel=1
offset=9057
pitch_keycenter=D5
release_start=29892
release_xfade=9600
sample=om28_Doit_MF_D5.opus
</region>

<region>
hikey=B2
hivel=127
lokey=A#2
lovel=1
offset=984
pitch_keycenter=A#2
release_start=74564
release_xfade=9600
sample=om28_Doit_MF_A#2.opus
</region>

<region>
end=126472
hikey=B3
hivel=127
lokey=A#3
lovel=1
offset=6991
pitch_keycenter=A#3
release_start=64267
release_xfade=9600
sample=om28_Doit_MF_A#3.opus
</region>

<region>
hikey=A3
hivel=127
lokey=G#3
lovel=1
offset=1120
pitch_keycenter=G#3
release_start=39270
release_xfade=9600
sample=om28_Doit_MF_G#3.opus
</region>

<region>
end=44194
hikey=G5
hivel=127
lokey=F#5
lovel=1
offset=7756
pitch_keycenter=F#5
release_start=27216
release_xfade=9600
sample=om28_Doit_MF_F#5.opus
</region>
</group>